<svg xmlns="http://www.w3.org/2000/svg" viewBox="0 0 613.90244 251.29907">
  <g>
    <g>
      <path d="M53.10847,6.26177q20.60592,0,31.2711,12.83432Q95.0461,31.92363,95.04406,51.81194V88.49917h49.04161v12.30544H95.04406v24.525H76.60728v-24.525H58.21352V88.49917H76.60728V51.45075q0-13.74408-6.50814-21.329-6.50745-7.59306-20.24406-7.5917H47.01135V6.26177Z" style="fill: #fff"/>
      <path d="M76.60728,137.59214v36.38308c0,11.70746-2.18559,20.396-6.305,25.12616-1.27535,1.46456-4.66849,5.35946-17.016,5.35946-6.61865,0-9.34478-.94633-9.77169-1.11249a44.62259,44.62259,0,0,1-9.18551-6.9743l-.01317-.01317L21.3097,209.36734l.00479.00509a63.09349,63.09349,0,0,0,13.16663,10.00011c2.75188,1.5885,8.24845,3.48206,18.80511,3.48206,13.942,0,24.04541-3.81886,30.88738-11.67363,7.17908-8.244,10.87045-20.76184,10.87045-37.20575V137.59214Z" style="fill: #fff"/>
      <g>
        <path d="M47.155,234.89138c-7.78861-.54786-14.07254-2.16779-18.80391-4.89842a74.95622,74.95622,0,0,1-15.71253-11.95475L0,230.67674q18.82487,18.83115,47.155,20.62173Z" style="fill: #fff"/>
        <path d="M149.19065,6.26177q-20.60586,0-31.27059,12.83432c-7.11142,8.55172-10.665,19.45925-10.665,26.58443V167.844c0,25.718-4.61221,40.80038-13.83364,51.39Q81.2472,233.20978,59.41748,234.88359v16.41548a78.39944,78.39944,0,0,0,23.75681-5.08074,63.62411,63.62411,0,0,0,22.885-15.02965,67.50778,67.50778,0,0,0,14.51682-23.22692c3.4153-8.9933,5.12415-19.06975,5.12415-36.36L125.6919,45.31947c0-3.03149,2.16989-10.13692,6.50847-15.1976q6.507-7.59327,20.24392-7.59192h2.84349V6.26177Z" style="fill: #fff"/>
      </g>
    </g>
    <g>
      <path d="M191.28788,197.37276c-3.7077,4.095-8.973,6.825-16.18943,6.825s-12.48173-2.73-16.18519-6.825c-5.85359-6.43557-7.41116-18.13851-7.41116-43.68606,0-25.54966,1.55757-37.25049,7.41116-43.68605,3.70346-4.09709,8.96873-6.82707,16.18519-6.82707s12.48173,2.73,16.18943,6.82707c5.84935,6.43556,7.41116,18.13639,7.41116,43.68605C198.699,179.23425,197.13723,190.93719,191.28788,197.37276Zm-5.65678-83.08244a14.609,14.609,0,0,0-21.06318,0c-5.07057,5.65677-5.65466,15.99261-5.65466,39.39638s.58409,33.73961,5.65466,39.39427a14.6042,14.6042,0,0,0,21.06318,0c5.07057-5.65466,5.65678-15.9905,5.65678-39.39427S190.70167,119.94709,185.6311,114.29032Z" style="fill: #fff"/>
      <path d="M224.29935,153.6867c0,23.40377.77878,33.73961,5.84935,39.39427a14.43366,14.43366,0,0,0,10.72523,4.48648c3.9024,0,7.99737-1.17029,10.72947-3.90027,3.50876-3.31619,5.07057-8.58146,5.07057-15.79792h7.21434c0,9.75175-2.14377,15.21171-6.825,20.08758a22.69091,22.69091,0,0,1-16.18943,6.24087c-7.21434,0-12.67642-2.73-16.37989-6.825-5.85147-6.43557-7.60585-18.13851-7.60585-43.68606,0-25.54966,1.55757-37.25049,7.41116-43.68605,3.70346-4.09709,8.96873-6.82707,16.18519-6.82707s12.48173,2.73,16.18943,6.82707c5.84935,6.43556,7.41116,18.13639,7.41116,43.68605Zm26.71784-39.39638a14.609,14.609,0,0,0-21.06318,0c-4.68118,5.07057-5.46,14.04141-5.65466,33.15552H256.674C256.47715,128.33173,255.69625,119.36089,251.01719,114.29032Z" style="fill: #fff"/>
      <path d="M323.08863,197.62132a19.17888,19.17888,0,0,1-14.31567,6.57639,18.12314,18.12314,0,0,1-11.60787-3.67548,18.59567,18.59567,0,0,1-5.02937-5.80183v9.47731h-7.351V103.17358h7.351v27.10951a18.58069,18.58069,0,0,1,5.02937-5.80393c3.29135-2.32157,6.77161-3.28925,11.60787-3.28925a18.66551,18.66551,0,0,1,14.31567,6.57849c5.80184,6.38328,7.35095,9.58437,7.35095,34.92646C330.43958,188.03486,328.89047,191.238,323.08863,197.62132Zm-5.60872-65.405a13.63392,13.63392,0,0,0-10.05875-4.44794,14.66712,14.66712,0,0,0-10.25607,3.86859c-3.28714,3.28715-5.02937,7.9303-5.02937,15.08813V178.6646c0,7.15574,1.74223,11.79888,5.02937,15.08813a14.66707,14.66707,0,0,0,10.25607,3.86859,13.63548,13.63548,0,0,0,10.05875-4.45c5.02938-5.60872,5.60872-7.26279,5.60872-30.47643S322.50929,137.82716,317.47991,132.21634Z" style="fill: #fff"/>
      <path d="M388.79375,197.37276c-3.70347,4.095-8.96873,6.825-16.1852,6.825s-12.48173-2.73-16.18942-6.825c-5.84936-6.43557-7.41116-18.13851-7.41116-43.68606,0-25.54966,1.5618-37.25049,7.41116-43.68605,3.70769-4.09709,8.973-6.82707,16.18942-6.82707s12.48173,2.73,16.1852,6.82707c5.85359,6.43556,7.41116,18.13639,7.41116,43.68605C396.20491,179.23425,394.64734,190.93719,388.79375,197.37276Zm-5.65466-83.08244a14.60648,14.60648,0,0,0-21.06107,0c-5.07057,5.65677-5.65889,15.99261-5.65889,39.39638s.58832,33.73961,5.65889,39.39427a14.60172,14.60172,0,0,0,21.06107,0c5.07057-5.65466,5.65466-15.9905,5.65466-39.39427S388.20966,119.94709,383.13909,114.29032Z" style="fill: #fff"/>
      <path d="M455.75149,196.69325a25.67393,25.67393,0,0,1-18.663,7.50446c-7.50446,0-13.47211-2.50149-17.89878-6.92607-5.57927-5.77346-7.69656-12.89372-7.69656-21.16867h10.77852c0,6.15767,1.34471,10.77644,5.003,14.43262a13.67171,13.67171,0,0,0,9.81384,4.04038,15.06839,15.06839,0,0,0,11.15855-4.42459c2.88569-2.88568,4.42667-7.12025,4.42667-12.12323a19.28686,19.28686,0,0,0-2.69359-10.58433c-2.11728-3.26989-5.19507-5.96348-9.81384-8.465l-12.31533-6.73606c-6.15975-3.46408-10.58225-7.88866-12.69953-11.54484a25.25541,25.25541,0,0,1-2.69359-12.31533,25.82266,25.82266,0,0,1,7.69656-18.473c4.42667-4.42668,10.58225-6.73606,17.5104-6.73606,7.31236,0,13.08374,2.11728,17.51041,6.54395,4.81087,4.80879,7.12025,11.73694,7.12025,21.16659H451.5211c0-7.31236-1.15678-10.96854-4.23457-14.24052a12.62253,12.62253,0,0,0-9.62175-3.84828c-4.23457,0-7.69656,1.1547-10.198,3.65618-3.07779,2.88569-4.23457,7.50446-4.23457,11.54484a16.67825,16.67825,0,0,0,1.92518,8.46705c1.34471,2.50149,4.61877,4.81087,9.04544,7.31236l12.11906,6.92816c6.35185,3.65618,10.58642,7.12025,13.28,11.54484a29.54064,29.54064,0,0,1,3.84619,15.3952A26.86548,26.86548,0,0,1,455.75149,196.69325Z" style="fill: #fff"/>
      <path d="M522.30452,196.50115c-4.23457,5.19507-10.19805,7.69656-18.08671,7.69656-7.89283,0-13.85631-2.50149-18.09088-7.69656-5.96348-7.12026-7.31236-19.62769-7.31236-42.71946,0-23.08967,1.34888-35.59919,7.31236-42.71736,4.23457-5.19716,10.198-7.89075,18.09088-7.89075,7.88866,0,13.85214,2.69359,18.08671,7.89075,5.96348,7.11817,7.31236,19.62769,7.31236,42.71736C529.61688,176.87346,528.268,189.38089,522.30452,196.50115ZM513.83538,117.222a12.38388,12.38388,0,0,0-9.61757-4.42667A12.8023,12.8023,0,0,0,494.404,117.222c-4.42667,5.38718-4.81087,15.58522-4.81087,36.5597s.3842,30.98043,4.81087,36.36969a12.80085,12.80085,0,0,0,9.81384,4.42459,12.38241,12.38241,0,0,0,9.61757-4.42459c4.42667-5.38926,5.00715-15.3952,5.00715-36.36969S518.26205,122.60917,513.83538,117.222Z" style="fill: #fff"/>
      <path d="M592.8969,196.53525c-4.81848-4.43367-7.32392-10.98588-7.32392-20.04353V75.88512h10.79138v100.6066c0,11.7555,6.16949,16.574,17.53808,16.574v9.637C606.00131,202.70265,598.67739,201.93094,592.8969,196.53525Z" style="fill: #fff"/>
      <path d="M580.989,9.82576V0c-7.51362,0-14.64207,1.35075-20.22875,6.35966-4.81737,4.43009-7.32156,10.78766-7.32156,19.84463v78.54727H536.67549v8.47762h16.76319V218.833c0,10.98235-5.783,16.378-16.76319,16.378v9.82628c7.51468,0,14.64312-1.35075,20.2298-6.35966,4.81632-4.43009,7.32157-10.78818,7.32157-19.84463V113.22918h49.67558v-8.47762H564.22686V26.20429C564.22686,15.22194,570.00875,9.82576,580.989,9.82576Z" style="fill: #fff"/>
    </g>
    <g style="opacity: 0.5">
      <path d="M500.932,72.384a91.26562,91.26562,0,0,1,17.39285-1.45211c7.21646,0,12.00036.58084,14.98177,1.45211,4.71882,1.36927,4.21285,3.85926-.29187,9.29491-4.5051,5.4361-8.12584,7.92564-15.11419,9.2949a91.14853,91.14853,0,0,1-17.389,1.45257c-7.21647,0-12.00036-.58085-14.98563-1.45257-4.71459-1.36926-4.21323-3.8588.29187-9.2949C490.32254,76.24321,493.94789,73.75322,500.932,72.384Zm-8.9929,17.67712a37.94751,37.94751,0,0,0,9.74193.95412,60.99468,60.99468,0,0,0,11.32125-.95412c6.068-1.20357,8.47459-3.40269,12.60131-8.38221s5.36511-7.17864,1.29161-8.38176a37.91905,37.91905,0,0,0-9.73945-.95457,61.01859,61.01859,0,0,0-11.32373.95457c-6.06764,1.20312-8.47634,3.40223-12.603,8.38176S487.866,88.8575,491.93911,90.06107Z" style="fill: #fff"/>
      <path d="M460.21751,81.67886c4.12671-4.97953,5.17042-7.17864,1.09691-8.38176a39.76028,39.76028,0,0,0-9.93414-.95457,69.41032,69.41032,0,0,0-11.41718.82984c-4.0935.70558-6.58372,1.82585-7.85617,3.36126h-7.21435c1.7195-2.07484,4.826-3.23653,10.36694-4.27395a102.306,102.306,0,0,1,17.28986-1.32784c7.21434,0,12.19505.58084,15.17646,1.45211,4.71671,1.36927,4.40755,3.85926-.09717,9.29491-4.5051,5.4361-8.12584,7.92564-15.11419,9.2949a91.14853,91.14853,0,0,1-17.389,1.45257c-7.21646,0-12.00036-.58085-14.98563-1.45257-4.71459-1.36926-4.21322-3.8588.29187-9.2949ZM426.553,90.06107a37.94754,37.94754,0,0,0,9.74194.95412,60.99456,60.99456,0,0,0,11.32124-.95412c5.57526-1.07885,7.93585-2.98754,11.50088-7.05437H426.74246C423.56894,87.07353,422.768,88.98222,426.553,90.06107Z" style="fill: #fff"/>
      <path d="M369.17508,72.33107a82.78583,82.78583,0,0,1,15.47527-1.39923,60.097,60.097,0,0,1,10.95978.782,13.97723,13.97723,0,0,1,4.00636,1.23443l1.6711-2.01644h7.35095L390.82526,92.42633h-7.351l4.78014-5.768a44.9832,44.9832,0,0,1-6.05276,1.23488,88.68612,88.68612,0,0,1-12.18785.69984c-6.38538,0-10.51665-.61766-13.15571-1.39968-4.67629-1.35814-5.661-2.03923-1.19247-7.43116C360.13378,74.37074,362.24771,73.68921,369.17508,72.33107Zm-5.92394,13.916a36.326,36.326,0,0,0,9.27446.94637,66.50009,66.50009,0,0,0,10.9382-.8231c3.86676-.6994,6.42771-1.6873,7.68983-3.21024l5.63179-6.79564c1.26175-1.52249.33823-2.5104-2.36894-3.21024a44.08985,44.08985,0,0,0-9.57392-.8231,59.16085,59.16085,0,0,0-10.84342.94681c-6.01834,1.19335-6.88934,1.54528-10.98253,6.48435S359.2111,85.05323,363.25114,86.247Z" style="fill: #fff"/>
      <path d="M303.42614,72.384a91.18365,91.18365,0,0,1,17.38862-1.45211c7.21646,0,12.00036.58084,14.986,1.45211,4.71459,1.36927,4.21285,3.85926-.29187,9.29491-4.5051,5.4361-8.13007,7.92564-15.11419,9.2949a91.23053,91.23053,0,0,1-17.39322,1.45257c-7.21647,0-12.00036-.58085-14.9814-1.45257-4.71883-1.36926-4.21322-3.8588.29187-9.2949C292.81667,76.24321,296.43779,73.75322,303.42614,72.384Zm-8.995,17.67712a37.92787,37.92787,0,0,0,9.73982.95412,60.99468,60.99468,0,0,0,11.32125-.95412c6.068-1.20357,8.47882-3.40269,12.60554-8.38221s5.36088-7.17864,1.28738-8.38176a37.91905,37.91905,0,0,0-9.73945-.95457,60.99323,60.99323,0,0,0-11.32162.95457c-6.06764,1.20312-8.47421,3.40223-12.60093,8.38176S290.358,88.8575,294.43112,90.06107Z" style="fill: #fff"/>
      <path d="M236.34858,72.52853a114.52,114.52,0,0,1,19.98625-1.59669c7.50446,0,13.031.53223,16.67753,1.47363,4.56125,1.22839,5.423,2.74334,3.964,4.504H266.19778c1.08577-1.31014.55548-2.29286-2.45811-3.07077a39.09333,39.09333,0,0,0-9.10141-.85965,67.26356,67.26356,0,0,0-11.93873.9414c-3.39451.614-5.68216,1.51494-6.56432,2.57941-.71243.85965-.55484,1.59669.82728,2.252,1.54072.69572,4.14355,1.26883,8.32125,1.80106l11.12758,1.4332c5.54894.737,9.19126,1.67844,10.66386,2.45635,1.2805.77791,1.37035,1.59669.52207,2.62028-1.32324,1.5967-5.521,2.94816-10.95385,3.93043a109.223,109.223,0,0,1-18.69815,1.4332c-7.31236,0-12.7104-.45048-16.35653-1.39233-3.963-1.02314-5.05072-2.49722-3.388-4.50353h10.77435c-1.28937,1.55582-.77727,2.33373,1.72358,3.0299a36.69315,36.69315,0,0,0,8.94319.81878,62.84177,62.84177,0,0,0,10.84273-.77791c3.58661-.614,5.55781-1.59669,6.27023-2.45635.57694-.69616.50946-1.31014-.43221-1.8015-.90363-.53223-3.77048-1.02359-7.75608-1.55582L237.66906,82.3135c-5.70717-.77791-9.33093-1.51495-11.24434-2.45635-1.913-.94185-2.11575-2.08805-1.1316-3.27558C226.65023,74.944,230.9154,73.51125,236.34858,72.52853Z" style="fill: #fff"/>
      <path d="M169.76168,72.5694a94.61362,94.61362,0,0,1,19.44382-1.63756c7.89283,0,13.41523.53223,16.73377,1.63756,4.708,1.51495,3.85146,4.17611-.22024,9.08925-4.07133,4.9127-7.626,7.57429-14.84458,9.0888a94.60531,94.60531,0,0,1-19.48223,1.67888c-7.88866,0-13.37719-.5731-16.69536-1.67888-4.70835-1.51451-3.85146-4.1761.21987-9.0888C158.98843,76.74551,162.54271,74.08435,169.76168,72.5694Zm-5.50992,16.86791a31.60764,31.60764,0,0,0,8.837.94184,54.94168,54.94168,0,0,0,10.59439-.94184c5.37657-1.14621,7.559-3.316,11.25733-7.77866s5.07848-6.59158,1.60208-7.73823a33.285,33.285,0,0,0-9.03367-.9414,52.74335,52.74335,0,0,0-10.39774.9414c-5.37694,1.14665-7.72174,3.27557-11.4201,7.73823S160.775,88.2911,164.25176,89.43731Z" style="fill: #fff"/>
    </g>
  </g>
</svg>
